<svg xmlns="http://www.w3.org/2000/svg">
  <symbol id="snake" viewBox="0 0 360 240"><g stroke="#cdd9b4" stroke-width=".7" opacity=".6"><path d="M20 0v240"></path><path d="M52 0v240"></path><path d="M84 0v240"></path><path d="M116 0v240"></path><path d="M148 0v240"></path><path d="M180 0v240"></path><path d="M212 0v240"></path><path d="M244 0v240"></path><path d="M276 0v240"></path><path d="M308 0v240"></path><path d="M340 0v240"></path><path d="M0 16h360"></path><path d="M0 48h360"></path><path d="M0 80h360"></path><path d="M0 112h360"></path><path d="M0 144h360"></path><path d="M0 176h360"></path><path d="M0 208h360"></path><path d="M0 240h360"></path></g><path d="M74 171h60v-55h-31V68h139" stroke="#668653" stroke-width="28" stroke-linecap="round" stroke-linejoin="round"></path><path d="M74 171h60v-55h-31V68h139" stroke="#a5bf7c" stroke-width="2" stroke-dasharray="1 13" opacity=".6"></path><rect x="229" y="50" width="43" height="35" rx="14" fill="#355c3b"></rect><circle cx="255" cy="59" r="4.4" fill="#f6f6de"></circle><circle cx="256" cy="59" r="2" fill="#294531"></circle><path d="M273 74h13m-4 0 5-4m-5 4 5 4" stroke="#c58164" stroke-width="2" stroke-linecap="round"></path><circle cx="254" cy="161" r="25" fill="#dce5c8"></circle><path d="M254 147c-19-7-26 19-11 27 5 3 8 0 11 0s6 3 11 0c15-8 8-34-11-27" fill="#c97e62"></path><path d="M254 149c-1-8 3-13 7-15" stroke="#67854f" stroke-width="3" stroke-linecap="round"></path><path d="M258 140c4-10 13-8 16-4-3 7-10 8-16 4" fill="#8ca363"></path><path d="M307 47v13m-6-6h12M51 101v9m-4-4h8" stroke="#95aa76" stroke-width="1.5"></path><text x="49" y="214" fill="#879c6e" font-size="8" letter-spacing="2">JUST ONE MORE BITE.</text></symbol>
  <symbol id="tetris" viewBox="0 0 360 240"><g stroke="#ccdcd3" stroke-width=".7" opacity=".65"><path d="M20 0v240"></path><path d="M52 0v240"></path><path d="M84 0v240"></path><path d="M116 0v240"></path><path d="M148 0v240"></path><path d="M180 0v240"></path><path d="M212 0v240"></path><path d="M244 0v240"></path><path d="M276 0v240"></path><path d="M308 0v240"></path><path d="M340 0v240"></path><path d="M0 16h360"></path><path d="M0 48h360"></path><path d="M0 80h360"></path><path d="M0 112h360"></path><path d="M0 144h360"></path><path d="M0 176h360"></path><path d="M0 208h360"></path><path d="M0 240h360"></path></g><g transform="translate(54 48) rotate(-8 65 75)"><rect x="0" y="64" width="32" height="32" rx="5" fill="#8da78a"></rect><rect x="0" y="99" width="32" height="32" rx="5" fill="#8da78a"></rect><rect x="35" y="99" width="32" height="32" rx="5" fill="#8da78a"></rect><rect x="70" y="99" width="32" height="32" rx="5" fill="#8da78a"></rect><path d="M5 70h22M5 105h22m13 0h22m13 0h22" stroke="#bbd0ad" stroke-width="2"></path></g><g transform="translate(163 42) rotate(10 50 40)" fill="#a5b9c6" stroke="#c0d0d7" stroke-width="1.5"><rect x="35" y="0" width="32" height="32" rx="5"></rect><rect x="0" y="35" width="32" height="32" rx="5"></rect><rect x="35" y="35" width="32" height="32" rx="5"></rect><rect x="70" y="35" width="32" height="32" rx="5"></rect></g><g transform="translate(223 132) rotate(8 34 34)" fill="#d8bc83" stroke="#e8d09e" stroke-width="1.5"><rect width="31" height="31" rx="5"></rect><rect x="34" width="31" height="31" rx="5"></rect><rect y="34" width="31" height="31" rx="5"></rect><rect x="34" y="34" width="31" height="31" rx="5"></rect></g><path d="M180 133v32m-5-6 5 6 5-6" stroke="#8da89c" stroke-width="1.5" stroke-dasharray="3 4"></path><path d="M301 63v13m-6-6h12M48 43v9m-4-4h8" stroke="#8da89c" stroke-width="1.5"></path><text x="49" y="214" fill="#87a095" font-size="8" letter-spacing="2">FIND YOUR LITTLE FLOW.</text></symbol>
  <symbol id="link" viewBox="0 0 360 240"><circle cx="181" cy="119" r="88" stroke="#e2d9ee" stroke-width="1" stroke-dasharray="4 6"></circle><path d="M109 98v65h145v-58" stroke="#b7a2ce" stroke-width="2.5" stroke-linecap="round" stroke-dasharray="5 5"></path><g transform="translate(63 48) rotate(-12 48 48)"><rect x="0" y="4" width="92" height="100" rx="19" fill="#dcd4e3"></rect><rect width="92" height="100" rx="19" fill="#fffaf7" stroke="white" stroke-width="5"></rect><path d="M35 58c15-11 16-26 16-32 0 13 9 17 11 34" stroke="#8b9b6c" stroke-width="3"></path><path d="M50 32c-13 0-17-9-14-13 10-1 16 3 14 13" fill="#98ac79"></path><circle cx="31" cy="64" r="15" fill="#d8858a"></circle><circle cx="61" cy="66" r="15" fill="#c96f7e"></circle><path d="M26 57q-5 1-5 6m35-4q-4 1-4 5" stroke="#f8c0bc" stroke-width="3" stroke-linecap="round"></path></g><g transform="translate(204 73) rotate(12 48 48)"><rect x="0" y="4" width="92" height="100" rx="19" fill="#dcd4e3"></rect><rect width="92" height="100" rx="19" fill="#fffaf7" stroke="white" stroke-width="5"></rect><path d="M35 58c15-11 16-26 16-32 0 13 9 17 11 34" stroke="#8b9b6c" stroke-width="3"></path><path d="M50 32c-13 0-17-9-14-13 10-1 16 3 14 13" fill="#98ac79"></path><circle cx="31" cy="64" r="15" fill="#d8858a"></circle><circle cx="61" cy="66" r="15" fill="#c96f7e"></circle><path d="M26 57q-5 1-5 6m35-4q-4 1-4 5" stroke="#f8c0bc" stroke-width="3" stroke-linecap="round"></path></g><path d="m181 63 3 9 9 3-9 3-3 9-3-9-9-3 9-3ZM306 38v12m-6-6h12" stroke="#b09ac9" stroke-width="1.5"></path><text x="49" y="214" fill="#a38bb7" font-size="8" letter-spacing="2">A PERFECT LITTLE MATCH.</text></symbol>
  <symbol id="minesweeper" viewBox="0 0 360 240"><g stroke="#ccd6bb" stroke-width=".7" opacity=".6"><path d="M20 0v240"></path><path d="M52 0v240"></path><path d="M84 0v240"></path><path d="M116 0v240"></path><path d="M148 0v240"></path><path d="M180 0v240"></path><path d="M212 0v240"></path><path d="M244 0v240"></path><path d="M276 0v240"></path><path d="M308 0v240"></path><path d="M340 0v240"></path><path d="M0 16h360"></path><path d="M0 48h360"></path><path d="M0 80h360"></path><path d="M0 112h360"></path><path d="M0 144h360"></path><path d="M0 176h360"></path><path d="M0 208h360"></path><path d="M0 240h360"></path></g><g transform="translate(100 48) rotate(-8 80 72)"><rect x="-9" y="-9" width="178" height="149" rx="14" fill="#d6dfc5" stroke="#f3f5e9" stroke-width="3"></rect><rect x="0" y="0" width="36" height="38" rx="6" fill="#f3f4e6"></rect><rect x="41" y="0" width="36" height="38" rx="6" fill="#f3f4e6"></rect><rect x="82" y="0" width="36" height="38" rx="6" fill="#8fa47b"></rect><rect x="123" y="0" width="36" height="38" rx="6" fill="#8fa47b"></rect><rect x="0" y="44" width="36" height="38" rx="6" fill="#f3f4e6"></rect><rect x="41" y="44" width="36" height="38" rx="6" fill="#f3f4e6"></rect><rect x="82" y="44" width="36" height="38" rx="6" fill="#8fa47b"></rect><rect x="123" y="44" width="36" height="38" rx="6" fill="#8fa47b"></rect><rect x="0" y="88" width="36" height="38" rx="6" fill="#f3f4e6"></rect><rect x="41" y="88" width="36" height="38" rx="6" fill="#8fa47b"></rect><rect x="82" y="88" width="36" height="38" rx="6" fill="#8fa47b"></rect><rect x="123" y="88" width="36" height="38" rx="6" fill="#8fa47b"></rect><text x="54" y="26" fill="#60847d" font-size="23" font-weight="700" text-anchor="middle">1</text><text x="54" y="70" fill="#587547" font-size="23" font-weight="700" text-anchor="middle">2</text><text x="16" y="113" fill="#60847d" font-size="23" font-weight="700" text-anchor="middle">1</text><path d="M98 101V61l23 10-23 10" fill="#f1d4a2" stroke="#f9e7c2" stroke-width="2" stroke-linejoin="round"></path><path d="M90 103h18" stroke="#f9e7c2" stroke-width="3" stroke-linecap="round"></path></g><path d="M294 59v15m-7-7h14M63 154v11m-5-5h10" stroke="#8fa276" stroke-width="1.5"></path><text x="49" y="214" fill="#84976d" font-size="8" letter-spacing="2">ONE LITTLE STEP AT A TIME.</text></symbol>
  <symbol id="2048" viewBox="0 0 360 240">
    <circle cx="181" cy="120" r="86" fill="none" stroke="#d8dfbf" stroke-dasharray="4 6"/>
    <g transform="translate(66 75) rotate(-12 45 45)"><rect y="5" width="84" height="84" rx="14" fill="#d7dcc2"/><rect width="84" height="84" rx="14" fill="#f8f6e9" stroke="#fffef6" stroke-width="3"/><text x="42" y="57" text-anchor="middle" fill="#909174" font-family="Segoe UI, sans-serif" font-size="44" font-weight="700">2</text></g>
    <path d="M164 116h25m-7-7 7 7-7 7" fill="none" stroke="#acb590" stroke-width="2" stroke-linecap="round" stroke-linejoin="round"/>
    <g transform="translate(207 58) rotate(10 46 50)"><rect y="5" width="90" height="99" rx="15" fill="#c8d0ae"/><rect width="90" height="99" rx="15" fill="#8e9f68" stroke="#d8e0bb" stroke-width="3"/><text x="45" y="62" text-anchor="middle" fill="#faf4cf" font-family="Segoe UI, sans-serif" font-size="30" font-weight="700">2048</text></g>
    <path d="M60 52v13m-6-6h12m233 106v13m-6-6h12m-120-3 3 8 8 3-8 3-3 8-3-8-8-3 8-3Z" fill="none" stroke="#a6b581" stroke-width="1.5"/>
    <text x="49" y="214" fill="#8e9c71" font-size="8" letter-spacing="2">SMALL NUMBERS. BIG JOY.</text>
  </symbol>
  <symbol id="sokoban" viewBox="0 0 360 240">
    <g stroke="#dcdcc5" stroke-width=".7" opacity=".65"><path d="M20 48h320M20 84h320M20 120h320M20 156h320M20 192h320M56 20v190M92 20v190M128 20v190M164 20v190M200 20v190M236 20v190M272 20v190M308 20v190"/></g>
    <g transform="translate(77 66) rotate(-9 52 52)"><rect y="6" width="101" height="101" rx="12" fill="#c6ad80"/><rect width="101" height="101" rx="12" fill="#e2c18c" stroke="#f5dfb3" stroke-width="5"/><rect x="13" y="13" width="75" height="75" rx="3" fill="none" stroke="#b79766" stroke-width="3"/><path d="m15 15 71 71m0-71L15 86" stroke="#b79766" stroke-width="10"/><path d="m18 14 71 71m-7-71L11 85" stroke="#efd7aa" stroke-width="2"/></g>
    <circle cx="251" cy="127" r="34" fill="#e4e7c9" stroke="#aab883" stroke-width="2" stroke-dasharray="5 5"/><circle cx="251" cy="127" r="15" fill="#b9c596"/>
    <path d="M188 127h17m-6-6 6 6-6 6" fill="none" stroke="#9aa875" stroke-width="2" stroke-linecap="round" stroke-linejoin="round"/>
    <g transform="translate(224 49) rotate(8)"><rect width="32" height="31" rx="6" fill="#b5c3a0"/><path d="M5 6h22" stroke="#dce4c9" stroke-width="2"/><path d="M5 26h22" stroke="#95aa7f" stroke-width="3"/><rect x="36" width="32" height="31" rx="6" fill="#b5c3a0"/><path d="M41 6h22" stroke="#dce4c9" stroke-width="2"/><path d="M41 26h22" stroke="#95aa7f" stroke-width="3"/></g>
    <path d="M50 57v12m-6-6h12M309 161v12m-6-6h12" stroke="#a1af83" stroke-width="1.5"/>
    <text x="49" y="214" fill="#969b79" font-size="8" letter-spacing="2">EVERYTHING IN ITS PLACE.</text>
  </symbol>
  <symbol id="pacman" viewBox="0 0 360 240">
    <g fill="none" stroke="#c7d4ac" stroke-width="8" stroke-linecap="round" stroke-linejoin="round">
      <path d="M58 104V71q0-16 16-16h212q16 0 16 16v100q0 16-16 16H74q-16 0-16-16v-29"/>
      <path d="M84 80h46m28 0h44v18m28-18h46v27M84 162h46v-12m28 12h44v-16m28 0h18m-86-48h24"/>
    </g>
    <path d="M58 104V71q0-16 16-16h212q16 0 16 16v100q0 16-16 16H74q-16 0-16-16v-29" fill="none" stroke="#e1e8cb" stroke-width="1.5" stroke-linecap="round"/>
    <path d="M108 122l22-15a27 27 0 1 0 0 30Z" fill="#d9b75e" stroke="#f3dda0" stroke-width="2" stroke-linejoin="round"/>
    <circle cx="109" cy="107" r="2.5" fill="#86713f"/>
    <g fill="#d4bd80"><circle cx="151" cy="122" r="3.5"/><circle cx="173" cy="122" r="3.5"/><circle cx="195" cy="122" r="3.5"/><circle cx="217" cy="162" r="3.5"/><circle cx="241" cy="162" r="3.5"/></g>
    <circle cx="276" cy="127" r="6" fill="#f9f1cc" stroke="#d8c68c" stroke-width="1.5"/>
    <g transform="translate(216 103)">
      <path d="M0 30V15a15 15 0 0 1 30 0v15l-5-4-5 4-5-4-5 4-5-4Z" fill="#dba5a5" stroke="#efd0c8" stroke-width="1.5" stroke-linejoin="round"/>
      <ellipse cx="10" cy="14" rx="4" ry="5" fill="#fff9e9"/><ellipse cx="21" cy="14" rx="4" ry="5" fill="#fff9e9"/>
      <g fill="#797b70"><circle cx="9" cy="14" r="2"/><circle cx="20" cy="14" r="2"/></g>
    </g>
    <g transform="translate(262 145)">
      <path d="M0 30V15a15 15 0 0 1 30 0v15l-5-4-5 4-5-4-5 4-5-4Z" fill="#a9c2ca" stroke="#d4e2df" stroke-width="1.5" stroke-linejoin="round"/>
      <ellipse cx="10" cy="14" rx="4" ry="5" fill="#fff9e9"/><ellipse cx="21" cy="14" rx="4" ry="5" fill="#fff9e9"/>
      <g fill="#6e8280"><circle cx="9" cy="14" r="2"/><circle cx="20" cy="14" r="2"/></g>
    </g>
    <text x="49" y="214" fill="#968047" font-size="8" letter-spacing="2">ONE BITE. A LITTLE BRIGHTER.</text>
  </symbol>
  <symbol id="gomoku" viewBox="0 0 360 240">
    <circle cx="183" cy="120" r="92" fill="none" stroke="#d2d9bd" stroke-dasharray="4 6"/>
    <g transform="translate(99 45) rotate(-9 82 73)">
      <rect y="6" width="164" height="147" rx="12" fill="#c7bda1"/>
      <rect width="164" height="147" rx="12" fill="#eee2c7" stroke="#faf5e6" stroke-width="4"/>
      <path d="M22 22h120M22 46h120M22 70h120M22 94h120M22 118h120M22 22v96M46 22v96M70 22v96M94 22v96M118 22v96M142 22v96" fill="none" stroke="#b9ad8d" stroke-width="1"/>
      <g fill="#414e39" stroke="#6b775b" stroke-width="1.5"><circle cx="46" cy="46" r="10"/><circle cx="70" cy="70" r="10"/><circle cx="94" cy="94" r="10"/><circle cx="118" cy="118" r="10"/></g>
      <g fill="#fffcf0" stroke="#cec6ad" stroke-width="1.5"><circle cx="70" cy="46" r="10"/><circle cx="94" cy="70" r="10"/><circle cx="118" cy="94" r="10"/></g>
      <path d="m46 46 72 72" stroke="#b6c88e" stroke-width="1.5" stroke-dasharray="3 4"/>
      <rect x="115" y="115" width="6" height="6" rx="1" fill="#ce986f"/>
    </g>
    <circle cx="69" cy="149" r="18" fill="#d3d8c2"/><circle cx="69" cy="145" r="18" fill="#4f5e43" stroke="#7b8967" stroke-width="2"/>
    <circle cx="280" cy="76" r="17" fill="#d3d8c2"/><circle cx="280" cy="72" r="17" fill="#fffdf1" stroke="#e0dcc9" stroke-width="2"/>
    <path d="M63 73v12m-6-6h12M300 160v12m-6-6h12" stroke="#9aa984" stroke-width="1.5"/>
    <text x="49" y="214" fill="#8b9976" font-size="8" letter-spacing="2">FIVE IN A LITTLE ROW.</text>
  </symbol>
  <symbol id="breakout" viewBox="0 0 360 240">
    <g fill="none" stroke="#ded5c1" stroke-width=".7"><path d="M24 48h312M24 80h312M24 112h312M24 144h312M24 176h312M52 24v172M84 24v172M116 24v172M148 24v172M180 24v172M212 24v172M244 24v172M276 24v172M308 24v172"/></g>
    <g transform="translate(68 59) rotate(-7 110 60)" stroke-width="2">
      <g fill="#cc9d89" stroke="#e6bba4"><rect width="47" height="21" rx="4"/><rect x="53" width="47" height="21" rx="4"/><rect x="106" width="47" height="21" rx="4"/><rect x="164" y="-9" width="47" height="21" rx="4" transform="rotate(12 188 1)"/></g>
      <g fill="#d4bb86" stroke="#e7d4ac"><rect y="27" width="47" height="21" rx="4"/><rect x="53" y="27" width="47" height="21" rx="4"/><rect x="106" y="27" width="47" height="21" rx="4"/><rect x="159" y="27" width="47" height="21" rx="4"/></g>
      <g fill="#a4b58b" stroke="#c6d2af"><rect y="54" width="47" height="21" rx="4"/><rect x="53" y="54" width="47" height="21" rx="4"/><rect x="159" y="54" width="47" height="21" rx="4"/></g>
    </g>
    <path d="m158 130 39 42 46-65" fill="none" stroke="#adad88" stroke-width="1.5" stroke-dasharray="4 5"/>
    <circle cx="238" cy="117" r="9" fill="#dabf80" stroke="#faf0cb" stroke-width="2"/>
    <rect x="157" y="179" width="81" height="12" rx="6" fill="#94a57b"/>
    <rect x="157" y="175" width="81" height="12" rx="6" fill="#a7b88b" stroke="#d2ddba" stroke-width="2"/>
    <path d="M184 179h26M307 154v12m-6-6h12M44 95v10m-5-5h10" stroke="#a3ac87" stroke-width="1.5" stroke-linecap="round"/>
    <text x="49" y="214" fill="#998968" font-size="8" letter-spacing="2">A LITTLE BOUNCE OF JOY.</text>
  </symbol>
  <symbol id="default" viewBox="0 0 360 240">
      <rect x="100" y="55" width="160" height="130" rx="35" fill="currentColor" opacity=".12" />
      <path d="M132 100h40m-20-20v40" stroke="currentColor" stroke-width="8" stroke-linecap="round" />
      <circle cx="221" cy="128" r="6" fill="currentColor"/><circle cx="200" cy="148" r="6" fill="currentColor"/>
    </symbol>
</svg>
